Coordinates
version=1
nRows=9
nColumns=63
inDegrees=yes

Units are S.I. units (second, meters, Newtons, ...)
If the header above contains a line with 'inDegrees', this indicates whether rotational values are in degrees (yes) or radians (no).

endheader
time	pelvis_tilt	pelvis_list	pelvis_rotation	pelvis_tx	pelvis_ty	pelvis_tz	hip_flexion_r	hip_adduction_r	hip_rotation_r	knee_angle_r	knee_angle_r_beta	ankle_angle_r	subtalar_angle_r	mtp_angle_r	hip_flexion_l	hip_adduction_l	hip_rotation_l	knee_angle_l	knee_angle_l_beta	ankle_angle_l	subtalar_angle_l	mtp_angle_l	L5_S1_Flex_Ext	L5_S1_Lat_Bending	L5_S1_axial_rotation	L4_L5_Flex_Ext	L4_L5_Lat_Bending	L4_L5_axial_rotation	L3_L4_Flex_Ext	L3_L4_Lat_Bending	L3_L4_axial_rotation	L2_L3_Flex_Ext	L2_L3_Lat_Bending	L2_L3_axial_rotation	L1_L2_Flex_Ext	L1_L2_Lat_Bending	L1_L2_axial_rotation	L1_T12_Flex_Ext	L1_T12_Lat_Bending	L1_T12_axial_rotation	Abs_r3	Abs_r2	Abs_r1	Abs_t1	Abs_t2	neck_flexion	neck_bending	neck_rotation	arm_flex_r	arm_add_r	arm_rot_r	elbow_flex_r	pro_sup_r	wrist_flex_r	wrist_dev_r	arm_flex_l	arm_add_l	arm_rot_l	elbow_flex_l	pro_sup_l	wrist_flex_l	wrist_dev_l
      2.80000000	     -5.16328538	     -3.90415624	    103.94309419	      0.30842600	      0.74122275	      0.86265765	     -0.87088853	      0.23769671	     -8.06861119	      4.84137881	      0.08449800	     18.68948688	      3.66751832	      0.00000000	      4.07714647	     -0.87990331	     -2.16184032	     11.37905071	      0.19860190	     22.96635223	     15.49755678	      0.00000000	     -0.41308439	      0.05374061	     -1.76944214	     -0.76713901	      0.07147501	     -1.88003227	     -0.67865634	      0.13066492	     -1.88003227	     -0.47211414	      0.13066492	     -1.54826187	     -0.38359016	      0.10958785	     -1.43767174	     -0.23603642	      0.08324420	     -1.32708160	     -2.95062046	      0.60792452	     -9.84110632	      0.00000000	      0.00000000	     -5.15778878	      0.21422270	     -1.58046529	      9.72694598	     -5.97999205	     11.76651698	    138.40291586	     83.05481255	    -18.45504269	      4.65916531	    -17.61191071	    -16.40777906	     11.58225891	    109.55346888	     88.27017809	     -7.48823412	     -2.12213528
      2.81666667	     -5.21008639	     -3.79070097	    103.79861836	      0.30854670	      0.74153853	      0.86169541	     -1.08372113	      0.23969111	     -7.30423399	      4.72586934	      0.08248198	     18.47453842	      2.86895276	      0.00000000	      3.81545192	     -0.85764321	     -2.21806646	     11.23658105	      0.19611534	     22.92523230	     15.39042671	      0.00000000	     -0.39584639	      0.05070090	     -1.70465028	     -0.73512633	      0.06743220	     -1.81119092	     -0.65033603	      0.12327417	     -1.81119092	     -0.45241284	      0.12327417	     -1.49156899	     -0.36758296	      0.10338928	     -1.38502835	     -0.22618663	      0.07853570	     -1.27848771	     -2.82749117	      0.57353874	     -9.48075346	      0.00000000	      0.00000000	     -5.16606871	      0.27019904	     -1.39524368	      9.27635827	     -6.02296792	     11.80197036	    137.99265912	     80.88855091	    -19.19623765	      5.21690619	    -17.31509510	    -16.51402963	     12.06662512	    109.01507997	     88.51945311	     -7.35111574	     -1.49048212
      2.83333333	     -5.26351369	     -3.67890565	    103.69653349	      0.30841593	      0.74174089	      0.86069776	     -1.33667950	      0.24148091	     -6.46073524	      4.56104339	      0.07960522	     18.26123303	      1.87557939	      0.00000000	      3.54310283	     -0.80864315	     -2.08983236	     11.10767372	      0.19386548	     22.83523752	     15.15073014	      0.00000000	     -0.37608379	      0.04685990	     -1.66203260	     -0.69842521	      0.06232366	     -1.76590963	     -0.61786807	      0.11393515	     -1.76590963	     -0.42982617	      0.11393515	     -1.45427852	     -0.34923141	      0.09555670	     -1.35040148	     -0.21489428	      0.07258598	     -1.24652445	     -2.68632893	      0.53008851	     -9.24372669	      0.00000000	      0.00000000	     -4.99891260	      0.43616589	     -0.99550716	      8.83466493	     -6.22925289	     11.94301302	    137.69928578	     79.17466105	    -20.14235526	      5.76860494	    -16.88719888	    -16.47518233	     12.49100560	    108.48508476	     88.54388164	     -7.46118568	     -0.37421786
      2.85000000	     -5.33295535	     -3.48361859	    103.62140292	      0.30808517	      0.74196638	      0.85981489	     -1.64662072	      0.19681894	     -6.45731423	      4.50456651	      0.07861952	     18.35930338	      2.01609505	      0.00000000	      3.16408403	     -0.71634213	     -1.53345312	     10.95094511	      0.19113005	     22.64642137	     14.39654355	      0.00000000	     -0.37253396	      0.04266176	     -1.64104349	     -0.69183282	      0.05674014	     -1.74360871	     -0.61203605	      0.10372781	     -1.74360871	     -0.42576907	      0.10372781	     -1.43591306	     -0.34593504	      0.08699587	     -1.33334784	     -0.21286591	      0.06608307	     -1.23078262	     -2.66097285	      0.48259839	     -9.12699159	      0.00000000	      0.00000000	     -4.35558513	      0.54917048	     -0.53515368	      8.50937840	     -6.51459403	     12.18512455	    137.40004828	     76.96020271	    -20.95093712	      6.08588137	    -16.31013193	    -16.30499571	     12.80276831	    107.88840878	     88.46423086	     -7.70423501	      0.76247154
      2.86666667	     -5.33410063	     -3.45846959	    103.57365658	      0.30767540	      0.74186281	      0.85863638	     -1.83979393	      0.22210139	     -6.04231560	      4.32762058	      0.07553123	     18.34661261	      1.53373117	      0.00000000	      2.99223822	     -0.71523461	     -1.50676362	     10.87826242	      0.18986150	     22.55444062	     14.45263916	      0.00000000	     -0.32780266	      0.04344182	     -1.61872790	     -0.60876232	      0.05777763	     -1.71989839	     -0.53854699	      0.10562445	     -1.71989839	     -0.37464566	      0.10562445	     -1.41638691	     -0.30439755	      0.08858657	     -1.31521642	     -0.18730644	      0.06729139	     -1.21404592	     -2.34146163	      0.49142260	     -9.00287895	      0.00000000	      0.00000000	     -3.65616619	      0.59944236	      0.14859169	      8.02685125	     -6.69178059	     12.27562145	    137.24557302	     76.69840986	    -21.72726322	      7.43464403	    -15.68987325	    -16.21385768	     13.34870374	    107.21082186	     88.16968429	     -8.57524211	      1.64416909
      2.88333333	     -5.40157292	     -3.30096440	    103.64907592	      0.30706774	      0.74195095	      0.85759605	     -2.19402161	      0.21901599	     -5.66148318	      4.16608417	      0.07271189	     18.34301312	      0.87244679	      0.00000000	      2.66697436	     -0.61241274	     -0.74771317	     10.76540460	      0.18789176	     22.33698312	     13.67022562	      0.00000000	     -0.30767303	      0.03860508	     -1.62862513	     -0.57137958	      0.05134476	     -1.73041420	     -0.50547602	      0.09386440	     -1.73041420	     -0.35163950	      0.09386440	     -1.42504699	     -0.28570517	      0.07872348	     -1.32325792	     -0.17580437	      0.05979927	     -1.22146885	     -2.19767767	      0.43670841	     -9.05792440	      0.00000000	      0.00000000	     -2.55759979	      0.51049826	      0.77741807	      7.59883412	     -6.88123328	     12.47254555	    136.96870470	     74.85228573	    -21.90860264	      8.29286093	    -15.02539410	    -16.19472495	     13.87456850	    106.41536323	     87.93266229	     -9.32057493	      1.73348338
      2.90000000	     -5.49730155	     -3.15741721	    103.53676491	      0.30672618	      0.74202874	      0.85644390	     -2.52480936	      0.17047039	     -5.27824507	      4.02582531	      0.07026391	     18.40820510	      0.47255853	      0.00000000	      2.30333577	     -0.51376226	     -0.49481750	     10.61286258	      0.18522940	     22.13229728	     13.32554998	      0.00000000	     -0.28072525	      0.03050746	     -1.59510835	     -0.52133486	      0.04057493	     -1.69480262	     -0.46120351	      0.07417585	     -1.69480262	     -0.32084089	      0.07417585	     -1.39571980	     -0.26068147	      0.06221082	     -1.29602553	     -0.16040641	      0.04725606	     -1.19633126	     -2.00519239	      0.34510654	     -8.87151409	      0.00000000	      0.00000000	     -1.34928450	      0.53749159	      1.51318135	      7.04586558	     -6.87358115	     12.54836576	    136.74398980	     72.81038911	    -21.91216590	      9.71920222	    -14.37545578	    -16.25125868	     14.47456649	    105.58379880	     87.74779814	     -9.75748275	      1.67345291
      2.91666667	     -5.57016132	     -3.08000180	    103.47086422	      0.30641418	      0.74197137	      0.85515956	     -2.80544359	      0.15050427	     -4.72758889	      3.84836137	      0.06716658	     18.41344539	     -0.22930044	      0.00000000	      2.00920642	     -0.41398534	      0.05921970	     10.44945761	      0.18237744	     21.98181964	     12.68494653	      0.00000000	     -0.23905959	      0.02323699	     -1.56454919	     -0.44395757	      0.03090520	     -1.66233352	     -0.39275100	      0.05649842	     -1.66233352	     -0.27322121	      0.05649842	     -1.36898054	     -0.22199074	      0.04738488	     -1.27119622	     -0.13659865	      0.03599410	     -1.17341190	     -1.70757876	      0.26286151	     -8.70155325	      0.00000000	      0.00000000	     -0.05996396	      0.41833193	      2.08799667	      6.35743481	     -6.79521826	     12.63215488	    136.46982558	     68.46932932	    -21.31441744	     10.61674796	    -13.86362254	    -16.44864097	     15.24156486	    104.81169367	     87.64416137	    -10.30163145	      1.21712354
      2.93333333	     -5.74574199	     -2.97605491	    103.52631874	      0.30608704	      0.74214554	      0.85422321	     -3.10170267	      0.02065921	     -4.69949886	      3.73082626	      0.06511520	     18.45206502	     -0.39906738	      0.00000000	      1.72833862	     -0.24892774	      0.16579406	     10.33233381	      0.18033324	     21.80262999	     12.63632419	      0.00000000	     -0.21159772	      0.00566706	     -1.54949805	     -0.39295813	      0.00753719	     -1.64634168	     -0.34763390	      0.01377889	     -1.64634168	     -0.24183503	      0.01377889	     -1.35581079	     -0.19648964	      0.01155627	     -1.25896716	     -0.12090694	      0.00877828	     -1.16212354	     -1.51142136	      0.06410691	     -8.61784329	      0.00000000	      0.00000000	      1.41818295	      0.34952471	      2.91383043	      5.63917406	     -6.53293644	     12.67364891	    136.15127596	     66.86183351	    -21.29892395	     11.40647269	    -13.43795003	    -16.70489463	     15.85654196	    104.14573668	     87.75075325	    -10.15324359	      1.11084780
